# xmcd
#
# Track frame offsets: 
#        150
#        12263
#        22314
#        31793
#        41964
#        53375
#        64582
#        77777
#        87425
#        97089
#        108539
#        119083
#        129785
#        140506
#        149413
#        160578
#        171557
#        181539
#
# Disc length: 2580 seconds
#
# Revision: 0
# Processed by: cddbd v1.5.1PL0 Copyright (c) Steve Scherf et al.
# Submitted via: ExactAudioCopy v0.95a5
#
DISCID=f50a1212
DTITLE=The Vibrations - Out Of Sight!! The Checker Years [CD1]
DYEAR=2004
DGENRE=R&B/Soul
TTITLE0=The Watusi
TTITLE1=Wallflower
TTITLE2=So Blue
TTITLE3=Love Me Like You Should
TTITLE4=Cave Man
TTITLE5=Feel So Bad
TTITLE6=Doing The Slop
TTITLE7=So Little Time
TTITLE8=Serenade Of The Bells
TTITLE9=Time After Time
TTITLE10=People Say
TTITLE11=Sweet Slumber
TTITLE12=I Had A Dream
TTITLE13=Everlasting Love
TTITLE14=Talk That Talk
TTITLE15=I Still Love You
TTITLE16=Continental With Me Baby
TTITLE17=The Junkeroo
EXTD=
EXTT0=
EXTT1=
EXTT2=
EXTT3=
EXTT4=
EXTT5=
EXTT6=
EXTT7=
EXTT8=
EXTT9=
EXTT10=
EXTT11=
EXTT12=
EXTT13=
EXTT14=
EXTT15=
EXTT16=
EXTT17=
PLAYORDER=
